<svg width="300" height="169" viewBox="0 0 300 169" fill="none" xmlns="http://www.w3.org/2000/svg">
<rect width="300" height="169" fill="#9F9F9F"/>
<path d="M164.875 65.1875C162.739 62.7485 161.562 59.6169 161.562 56.375H151.906V95.125C151.833 97.2225 150.948 99.2096 149.438 100.667C147.928 102.125 145.911 102.939 143.812 102.938C139.375 102.938 135.688 99.3125 135.688 94.8125C135.688 89.4375 140.875 85.4062 146.219 87.0625V77.1875C135.438 75.75 126 84.125 126 94.8125C126 105.219 134.625 112.625 143.781 112.625C153.594 112.625 161.562 104.656 161.562 94.8125V75.1562C165.478 77.9683 170.179 79.477 175 79.4688V69.8125C175 69.8125 169.125 70.0938 164.875 65.1875Z" fill="white"/>
</svg>
