<svg width="300" height="169" viewBox="0 0 300 169" fill="none" xmlns="http://www.w3.org/2000/svg">
<rect width="300" height="169" fill="#9F9F9F"/>
<path d="M164.875 37.1875C162.739 34.7485 161.562 31.6169 161.563 28.375H151.906V67.125C151.833 69.2225 150.949 71.2096 149.438 72.6672C147.928 74.1247 145.911 74.9388 143.812 74.9375C139.375 74.9375 135.688 71.3125 135.688 66.8125C135.688 61.4375 140.875 57.4062 146.219 59.0625V49.1875C135.438 47.75 126 56.125 126 66.8125C126 77.2188 134.625 84.625 143.781 84.625C153.594 84.625 161.563 76.6563 161.563 66.8125V47.1563C165.478 49.9683 170.179 51.477 175 51.4688V41.8125C175 41.8125 169.125 42.0938 164.875 37.1875Z" fill="white"/>
<path d="M100.569 116.856H103.993C103.993 116.584 103.993 116.392 103.993 116.264V115.8C103.993 114.888 103.977 114.408 103.913 114.008H106.793C106.729 114.488 106.729 114.488 106.713 116.856H107.337C108.537 116.856 108.985 116.84 109.641 116.744V119.48C108.873 119.416 108.425 119.4 107.385 119.4H106.681C106.649 120.664 106.633 121.016 106.569 121.624C106.329 123.784 105.609 125.24 104.201 126.456C103.337 127.208 102.505 127.656 100.889 128.264C100.377 127.208 100.009 126.696 99.1449 125.816C100.697 125.352 101.513 124.984 102.233 124.408C103.321 123.544 103.785 122.504 103.913 120.712C103.929 120.424 103.929 120.312 103.945 119.4H100.569V121.192C100.569 121.976 100.585 122.408 100.633 122.84H97.7049C97.7689 122.392 97.8009 121.864 97.8009 121.16V119.4H97.2089C96.0569 119.4 95.8489 119.4 94.9529 119.48V116.744C95.6729 116.84 95.9929 116.856 97.2569 116.856H97.8009V115.688C97.8009 114.936 97.7849 114.584 97.7049 113.992H100.633C100.569 114.632 100.569 114.68 100.569 115.624V116.856ZM115.292 113.816L118.492 114.408C118.332 114.744 118.3 114.84 118.076 115.592C116.828 119.736 116.14 121.768 115.1 124.424C117.18 124.296 119.068 124.072 120.588 123.8C119.996 122.44 119.26 121.032 118.572 119.992L121.084 119.032C122.716 121.512 123.836 123.768 124.892 126.68L122.156 128.072C121.964 127.336 121.916 127.192 121.564 126.28C119.276 126.68 117.644 126.904 115.164 127.16L111.5 127.512C111.116 127.56 111.004 127.576 110.62 127.656L110.204 124.664C110.508 124.68 110.636 124.68 110.716 124.68C110.812 124.68 110.94 124.68 111.116 124.664L111.612 124.648C111.82 124.648 111.852 124.648 112.012 124.632C113.052 122.024 113.868 119.576 114.668 116.68C115.1 115.16 115.228 114.552 115.292 113.816ZM134.812 128.232H131.804C131.884 127.608 131.916 127.064 131.916 125.976V123.096C130.716 123.8 129.404 124.328 127.308 124.952C126.876 123.832 126.62 123.352 125.996 122.488C127.692 122.136 129.356 121.608 130.796 120.968C132.428 120.248 133.5 119.528 134.828 118.296L129.932 118.328C128.54 118.328 128.332 118.344 127.628 118.408V115.816C128.364 115.912 129.004 115.944 129.964 115.944H131.868V115.064C131.868 114.344 131.852 114.136 131.788 113.576H134.764C134.7 114.04 134.668 114.44 134.668 115.032V115.928H137.212C137.676 115.928 137.932 115.88 138.236 115.752L139.484 117.208C139.228 117.384 139.228 117.384 138.748 117.944C137.932 118.856 137.756 119.032 135.804 120.712C137.836 121.432 139.372 122.184 140.988 123.224L139.404 125.576C138.076 124.568 136.588 123.72 134.716 122.904V125.992C134.716 127.256 134.716 127.448 134.812 128.232ZM153.484 113.736L156.076 115.464C155.724 115.768 155.708 115.784 155.452 116.056C154.188 117.352 153.052 118.344 151.756 119.272V125.432C151.756 126.744 151.772 127.16 151.852 128.024H148.748C148.828 127.176 148.844 126.824 148.844 125.448V121.032C147.18 122.008 145.9 122.584 143.612 123.4C143.18 122.328 142.86 121.8 142.076 120.824C145.548 119.848 147.996 118.648 150.572 116.664C151.948 115.624 153.02 114.536 153.484 113.736ZM159.855 114.2L162.879 114.376C162.815 114.92 162.815 114.92 162.703 118.088C162.607 121.432 162.287 123.208 161.519 124.952C160.991 126.136 160.383 127 159.295 128.152C158.479 127.08 158.031 126.632 157.007 125.912C157.919 125.096 158.415 124.424 158.911 123.368C159.663 121.8 159.919 119.816 159.919 115.672C159.919 114.968 159.903 114.616 159.855 114.2ZM164.399 114.12H167.407C167.311 114.776 167.295 115.032 167.279 115.976L167.199 124.36C168.063 123.816 168.575 123.352 169.119 122.6C169.695 121.784 170.079 120.952 170.367 119.864C171.167 120.856 171.583 121.272 172.495 121.976C171.775 123.768 170.943 125 169.727 126.04C168.767 126.856 167.983 127.272 166.367 127.864C165.919 128.024 165.791 128.072 165.583 128.2L164.207 126.76C164.351 126.344 164.383 126.072 164.383 125.416L164.463 115.944V115.368C164.463 114.856 164.447 114.504 164.399 114.12ZM181.535 115.656V114.696C181.535 114.104 181.503 113.8 181.439 113.432H184.095C184.015 113.752 183.999 114.056 183.999 114.712V115.656H185.871C186.735 115.656 187.311 115.624 187.839 115.56V118.056C187.295 117.992 186.671 117.96 185.823 117.96H179.871C178.943 117.96 178.271 117.992 177.807 118.056V115.576C178.255 115.64 178.751 115.656 179.807 115.656H181.535ZM179.407 125.64H182.655C183.423 123.4 184.063 120.584 184.335 118.28L186.975 119.016C186.367 121.704 185.935 123.24 185.135 125.64H186.223C187.103 125.64 187.663 125.608 188.191 125.544V128.056C187.615 127.992 187.023 127.96 186.095 127.96H179.503C178.607 127.96 177.983 127.992 177.455 128.056V125.544C177.967 125.608 178.527 125.64 179.407 125.64ZM174.527 126.632V122.6C174.527 122.36 174.527 121.8 174.543 121C173.999 121.72 173.999 121.72 173.727 122.04C173.535 120.984 173.295 120.12 172.911 119.096C173.839 118.12 174.607 116.872 175.199 115.272C175.487 114.472 175.679 113.8 175.759 113.208L178.303 113.784C177.791 115.416 177.439 116.36 176.959 117.416V126.632C176.959 127.32 176.975 127.768 177.055 128.472H174.415C174.495 127.752 174.527 127.384 174.527 126.632ZM182.255 124.424L179.839 125.272C179.391 122.904 178.911 121.16 178.175 119.208L180.511 118.392C181.311 120.52 181.727 121.96 182.255 124.424ZM196.047 117.32H191.535C190.831 117.32 190.319 117.336 189.967 117.368C190.031 116.952 190.047 116.648 190.047 115.976V115.16C190.047 114.472 190.031 114.136 189.967 113.688C190.415 113.736 190.911 113.752 191.759 113.752H201.759C202.639 113.752 203.183 113.736 203.551 113.688C203.487 114.136 203.471 114.44 203.471 115.16V115.976C203.471 116.696 203.487 117 203.551 117.368C203.167 117.336 202.735 117.32 201.983 117.32H198.431L198.319 117.768H201.999C203.023 117.768 203.391 117.752 203.999 117.688V119.512C203.327 119.448 203.007 119.432 201.999 119.432H197.887C197.823 119.624 197.807 119.64 197.727 119.88H201.391C202.143 119.88 202.399 119.88 202.751 119.848C202.719 120.216 202.703 120.536 202.703 121.176V124.6C202.703 125.384 202.703 125.544 202.735 125.896C202.063 125.864 201.855 125.864 201.391 125.864H194.623C194.127 125.864 194.015 125.864 193.263 125.896C193.279 125.384 193.295 125.08 193.295 124.6V121.176C193.295 120.44 193.295 120.248 193.263 119.864C193.375 119.864 193.375 119.864 193.583 119.88C193.695 119.88 193.983 119.88 194.559 119.88H195.391C195.455 119.688 195.471 119.624 195.535 119.432H191.439C190.447 119.432 190.063 119.448 189.439 119.512V117.688C190.047 117.752 190.415 117.768 191.439 117.768H195.951C195.999 117.576 196.015 117.512 196.047 117.32ZM193.839 115.912V115.336H192.287V115.912H193.839ZM197.455 115.912V115.336H195.919V115.912H197.455ZM199.535 115.912H201.135V115.336H199.535V115.912ZM195.551 121.16V121.592H200.431V121.16H195.551ZM195.551 122.648V123.08H200.431V122.648H195.551ZM195.551 124.136V124.568H200.431V124.136H195.551ZM192.479 126.312H202.047C203.087 126.312 203.391 126.296 204.047 126.232V128.088C203.439 128.024 203.039 128.008 202.047 128.008H192.479V128.488H189.999C190.079 128.008 190.095 127.64 190.095 126.776V121.656C190.095 120.92 190.079 120.584 190.015 120.152H192.543C192.495 120.568 192.479 120.888 192.479 121.64V126.312Z" fill="white"/>
</svg>
